# xmcd
#
# Track frame offsets: 
#        150
#        19706
#        37833
#        52549
#        74735
#        91126
#        114048
#        128932
#        148315
#
# Disc length: 2194 seconds
#
# Revision: 0
# Processed by: cddbd v1.5.1PL2 Copyright (c) Steve Scherf et al.
# Submitted via: ExactAudioCopy v0.90b4
#
DISCID=6f089009
DTITLE=Tebo - Da'Kona Sto
DYEAR=2003
DGENRE=R&B
TTITLE0=Mucho Trabajo
TTITLE1=I'll Take You There
TTITLE2=Where'z Da Watta
TTITLE3=Love Don't Live Here
TTITLE4=Flowers
TTITLE5=Idontwanna
TTITLE6=Lik The Dawg
TTITLE7=Gamez
TTITLE8=1322
EXTD=
EXTT0=
EXTT1=
EXTT2=
EXTT3=
EXTT4=
EXTT5=
EXTT6=
EXTT7=
EXTT8=
PLAYORDER=
